<?xml version="1.0" encoding="UTF-8" standalone="no"?>
<!DOCTYPE svg PUBLIC "-//W3C//DTD SVG 1.1//EN" "http://www.w3.org/Graphics/SVG/1.1/DTD/svg11.dtd">
<!-- Created with Vectornator (http://vectornator.io/) -->
<svg height="100%" stroke-miterlimit="10" style="fill-rule:nonzero;clip-rule:evenodd;stroke-linecap:round;stroke-linejoin:round;" version="1.1" viewBox="0 0 129.852 11.202" width="100%" xml:space="preserve" xmlns="http://www.w3.org/2000/svg" xmlns:vectornator="http://vectornator.io" xmlns:xlink="http://www.w3.org/1999/xlink">
<defs/>
<g id="Untitled" vectornator:layerName="Untitled">
<path d="M0.75 11C0.825 10.44 0.897 9.88 0.968 9.32C1.038 8.76 1.113 8.152 1.192 7.497L1.635 3.912C1.72 3.267 1.798 2.657 1.867 2.082L2.086 0.305L4.583 0.305C4.823 0.915 5.053 1.498 5.27 2.055C5.487 2.613 5.703 3.167 5.919 3.717L7.193 6.987L7.358 6.987L8.596 3.725L9.222 2.075C9.43 1.529 9.649 0.939 9.878 0.305L12.346 0.305C12.497 1.51017 12.6493 2.71517 12.803 3.92L13.261 7.52C13.341 8.17 13.417 8.77 13.49 9.32C13.562 9.87 13.633 10.43 13.703 11L11.356 11C11.266 10.25 11.178 9.537 11.093 8.862C11.008 8.187 10.931 7.554 10.861 6.965L10.546 4.43L10.381 4.43L9.451 7.152C9.226 7.822 9 8.486 8.772 9.143C8.545 9.801 8.333 10.419 8.138 10.999L6.502 10.999C6.18818 10.1567 5.87084 9.31567 5.55 8.476C5.38 8.028 5.213 7.589 5.048 7.159L4.013 4.43L3.848 4.43L3.54 6.95C3.47 7.545 3.394 8.182 3.311 8.86L3.053 11L0.75 11ZM19.767 11C20.1663 9.79364 20.5616 8.58597 20.953 7.377L22.16 3.71C22.375 3.045 22.57 2.446 22.745 1.913C22.92 1.381 23.095 0.844 23.27 0.304L26.45 0.304C26.8157 1.44074 27.1857 2.57608 27.56 3.71L28.753 7.385C28.948 7.975 29.146 8.582 29.349 9.207L29.93 10.999L27.38 10.999C27.0567 9.84786 26.7293 8.69786 26.398 7.549L24.928 2.397L24.748 2.397L23.262 7.497C23.102 8.052 22.934 8.633 22.756 9.241L22.242 10.999L19.767 10.999L19.767 11ZM22.347 8.764L22.61 6.919L27.387 6.919L27.597 8.765L22.347 8.765L22.347 8.764ZM36.28 11L36.28 0.303L40.383 0.303C41.253 0.303 41.989 0.4 42.591 0.593C43.194 0.785 43.651 1.106 43.964 1.556C44.276 2.006 44.432 2.619 44.432 3.394C44.432 4.009 44.312 4.561 44.069 5.051C43.826 5.541 43.437 5.929 42.903 6.214C42.368 6.498 41.667 6.641 40.803 6.641L41.755 5.741L43.21 7.886L43.93 8.947L44.676 10.05C44.919 10.407 45.132 10.723 45.318 10.998L42.52 10.998C42.25 10.578 41.99 10.176 41.74 9.791C41.49 9.406 41.248 9.031 41.013 8.666L39.28 5.936L40.742 7.053L38.26 7.053L38.26 5.293L40.045 5.293C40.445 5.293 40.781 5.244 41.054 5.147C41.326 5.049 41.532 4.883 41.672 4.648C41.812 4.413 41.882 4.09 41.882 3.68C41.882 3.376 41.838 3.13 41.748 2.942C41.6677 2.76601 41.5421 2.61451 41.384 2.503C41.2308 2.39771 41.0569 2.32613 40.874 2.293C40.687 2.2582 40.4972 2.24079 40.307 2.241L36.947 2.241L38.703 0.694L38.703 11L36.28 11ZM57.818 11C57.488 10.524 57.176 10.078 56.884 9.66C56.591 9.243 56.305 8.832 56.025 8.427L54.615 6.409L53.925 6.409L53.925 4.475L54.585 4.475L55.845 2.825C56.4895 1.98846 57.1295 1.14845 57.765 0.305L60.608 0.305C59.7031 1.40407 58.8054 2.50909 57.915 3.62L56.22 5.712L56.175 4.624L58.058 7.227C58.6939 8.10375 59.3286 8.98141 59.962 9.86C60.278 10.294 60.555 10.675 60.795 11C60.795 11 57.818 11 57.818 11ZM51.66 11L51.66 0.303L54.12 0.303L54.12 11L51.66 11ZM67.138 11L67.138 0.303L71.39 0.303C72.205 0.303 72.93 0.421 73.565 0.656C74.2 0.891 74.736 1.236 75.174 1.691C75.6248 2.16815 75.9663 2.73765 76.175 3.36C76.405 4.017 76.52 4.768 76.52 5.613C76.52 6.368 76.419 7.073 76.216 7.725C76.0232 8.36003 75.6931 8.94486 75.249 9.438C74.806 9.928 74.223 10.311 73.498 10.586C72.772 10.861 71.888 10.998 70.842 10.998L67.138 10.998L67.138 11ZM69.605 9.027L70.835 9.027C71.605 9.027 72.216 8.877 72.669 8.577C73.121 8.277 73.448 7.867 73.647 7.347C73.847 6.827 73.947 6.239 73.947 5.584C73.947 5.09 73.889 4.64 73.771 4.234C73.6652 3.85176 73.4814 3.49559 73.231 3.188C72.9821 2.89076 72.6642 2.65901 72.305 2.513C71.93 2.356 71.482 2.277 70.962 2.277L69.605 2.277C69.605 2.277 69.605 9.027 69.605 9.027ZM88.24 11.202C87.275 11.202 86.44 11.053 85.735 10.756C85.03 10.458 84.45 10.051 83.995 9.533C83.5405 9.01634 83.195 8.41331 82.979 7.76C82.7544 7.08276 82.6416 6.37349 82.645 5.66C82.645 4.62 82.851 3.678 83.264 2.836C83.6695 2.00123 84.311 1.30376 85.109 0.83C85.926 0.335 86.948 0.087 88.173 0.087C89.103 0.087 89.915 0.231 90.61 0.518C91.2708 0.781875 91.864 1.19057 92.346 1.714C92.809 2.224 93.155 2.814 93.385 3.484C93.615 4.154 93.73 4.874 93.73 5.644C93.73 6.709 93.519 7.659 93.096 8.494C92.6821 9.31982 92.0374 10.0077 91.24 10.474C90.425 10.96 89.425 11.202 88.24 11.202ZM88.203 9.169C88.698 9.169 89.13 9.076 89.5 8.889C89.87 8.701 90.177 8.442 90.422 8.112C90.668 7.782 90.852 7.406 90.974 6.983C91.096 6.561 91.157 6.114 91.157 5.645C91.157 5.15 91.091 4.688 90.959 4.261C90.8373 3.8548 90.6413 3.4747 90.381 3.14C90.1328 2.82343 89.8162 2.56705 89.455 2.39C89.0642 2.20434 88.6356 2.11191 88.203 2.12C87.717 2.12 87.289 2.212 86.916 2.397C86.5495 2.5774 86.2301 2.84069 85.983 3.166C85.733 3.493 85.543 3.87 85.413 4.294C85.2811 4.73178 85.2154 5.1868 85.218 5.644C85.218 6.119 85.28 6.568 85.405 6.991C85.53 7.413 85.716 7.788 85.964 8.116C86.211 8.443 86.521 8.701 86.894 8.888C87.266 9.076 87.702 9.169 88.202 9.169L88.203 9.169ZM102.105 11L101.655 9.302C101.495 8.699 101.345 8.14 101.205 7.625L100.32 4.265C99.9652 2.94628 99.6152 1.62628 99.27 0.305L102.052 0.305C102.335 1.68041 102.62 3.05541 102.907 4.43L103.65 8.068L103.838 8.068L104.603 4.385C104.693 3.965 104.786 3.522 104.883 3.055L105.18 1.648L105.465 0.305L108.097 0.305C108.39 1.67051 108.685 3.03551 108.983 4.4L109.777 8.068L109.957 8.068L110.715 4.378C110.845 3.748 110.984 3.071 111.131 2.346L111.547 0.306L114.337 0.306C114.162 0.941 113.981 1.608 113.794 2.308C113.606 3.008 113.433 3.653 113.272 4.243L112.357 7.625C112.213 8.155 112.06 8.721 111.9 9.321C111.74 9.921 111.587 10.481 111.442 11.001L108.442 11.001C108.302 10.401 108.155 9.771 108 9.114C107.845 8.457 107.7 7.83 107.565 7.236L106.77 3.846L106.582 3.846L105.818 7.236C105.688 7.826 105.546 8.453 105.394 9.118C105.241 9.783 105.097 10.41 104.963 11C104.963 11 102.105 11 102.105 11ZM120.71 11L120.71 0.304L122.863 0.304C123.363 1.034 123.835 1.724 124.28 2.371L125.615 4.317L127.355 6.837L127.535 6.837L127.535 0.304L129.852 0.304L129.852 11L127.722 11C127.312 10.4 126.882 9.775 126.432 9.125L124.955 6.995L123.192 4.445L123.02 4.445L123.02 11C123.02 11 120.71 11 120.71 11Z" fill="#151619" fill-rule="nonzero" opacity="1" stroke="none" vectornator:layerName="path"/>
</g>
</svg>
